<svg aria-hidden="true" style="position: absolute; width: 0; height: 0; overflow: hidden;" version="1.1"
    xmlns="http://www.w3.org/2000/svg"
    xmlns:xlink="http://www.w3.org/1999/xlink">
    <defs>


        <symbol id="icon-facebook" viewBox="0 0 32 32">
            <path d="M21.33 5.313h2.921v-5.088c-0.504-0.069-2.237-0.225-4.256-0.225-4.212 0-7.097 2.649-7.097 7.519v4.481h-4.648v5.688h4.648v14.312h5.699v-14.311h4.46l0.708-5.688h-5.169v-3.919c0.001-1.644 0.444-2.769 2.735-2.769z"></path>
        </symbol>


        <symbol id="icon-instagram" viewBox="0 0 32 32">
            <path d="M31.969 9.408c-0.075-1.7-0.35-2.869-0.744-3.882-0.406-1.075-1.032-2.038-1.851-2.838-0.8-0.813-1.769-1.444-2.832-1.844-1.019-0.394-2.182-0.669-3.882-0.744-1.713-0.081-2.257-0.1-6.601-0.1s-4.888 0.019-6.595 0.094c-1.7 0.075-2.869 0.35-3.882 0.744-1.075 0.406-2.038 1.031-2.838 1.85-0.813 0.8-1.444 1.769-1.844 2.832-0.394 1.019-0.669 2.182-0.744 3.882-0.081 1.713-0.1 2.257-0.1 6.601s0.019 4.888 0.094 6.595c0.075 1.7 0.35 2.869 0.744 3.882 0.406 1.075 1.038 2.038 1.85 2.838 0.8 0.813 1.769 1.444 2.832 1.844 1.019 0.394 2.182 0.669 3.882 0.744 1.706 0.075 2.25 0.094 6.595 0.094s4.888-0.019 6.595-0.094c1.7-0.075 2.869-0.35 3.882-0.744 2.151-0.832 3.851-2.532 4.682-4.682 0.394-1.019 0.669-2.182 0.744-3.882 0.075-1.707 0.094-2.251 0.094-6.595s-0.006-4.888-0.081-6.595zM29.087 22.473c-0.069 1.563-0.331 2.407-0.55 2.969-0.538 1.394-1.644 2.5-3.038 3.038-0.563 0.219-1.413 0.481-2.969 0.55-1.688 0.075-2.194 0.094-6.464 0.094s-4.782-0.019-6.464-0.094c-1.563-0.069-2.407-0.331-2.969-0.55-0.694-0.256-1.325-0.663-1.838-1.194-0.531-0.519-0.938-1.144-1.194-1.838-0.219-0.563-0.481-1.413-0.55-2.969-0.075-1.688-0.094-2.194-0.094-6.464s0.019-4.782 0.094-6.464c0.069-1.563 0.331-2.407 0.55-2.969 0.256-0.694 0.663-1.325 1.2-1.838 0.519-0.531 1.144-0.938 1.838-1.194 0.563-0.219 1.413-0.481 2.969-0.55 1.688-0.075 2.194-0.094 6.464-0.094 4.276 0 4.782 0.019 6.464 0.094 1.563 0.069 2.407 0.331 2.969 0.55 0.694 0.256 1.325 0.662 1.838 1.194 0.531 0.519 0.938 1.144 1.194 1.838 0.219 0.563 0.481 1.413 0.55 2.969 0.075 1.688 0.094 2.194 0.094 6.464s-0.019 4.77-0.094 6.458z"></path>
            <path d="M16.059 7.783c-4.538 0-8.22 3.682-8.22 8.22s3.682 8.22 8.22 8.22c4.539 0 8.22-3.682 8.22-8.22s-3.682-8.22-8.22-8.22zM16.059 21.335c-2.944 0-5.332-2.388-5.332-5.332s2.388-5.332 5.332-5.332c2.944 0 5.332 2.388 5.332 5.332s-2.388 5.332-5.332 5.332z"></path>
            <path d="M26.524 7.458c0 1.060-0.859 1.919-1.919 1.919s-1.919-0.859-1.919-1.919c0-1.060 0.859-1.919 1.919-1.919s1.919 0.859 1.919 1.919z"></path>
        </symbol>


        <symbol id="icon-linkedin" viewBox="0 0 32 32">
            <path d="M31.992 32v-0.001h0.008v-11.736c0-5.741-1.236-10.164-7.948-10.164-3.227 0-5.392 1.771-6.276 3.449h-0.093v-2.913h-6.364v21.364h6.627v-10.579c0-2.785 0.528-5.479 3.977-5.479 3.399 0 3.449 3.179 3.449 5.657v10.401h6.62z"></path>
            <path d="M0.528 10.636h6.635v21.364h-6.635v-21.364z"></path>
            <path d="M3.843 0c-2.121 0-3.843 1.721-3.843 3.843s1.721 3.879 3.843 3.879c2.121 0 3.843-1.757 3.843-3.879-0.001-2.121-1.723-3.843-3.843-3.843v0z"></path>
        </symbol>



        <symbol id="icon-twitter" viewBox="0 0 32 32">
            <path d="M32 6.078c-1.19 0.522-2.458 0.868-3.78 1.036 1.36-0.812 2.398-2.088 2.886-3.626-1.268 0.756-2.668 1.29-4.16 1.588-1.204-1.282-2.92-2.076-4.792-2.076-3.632 0-6.556 2.948-6.556 6.562 0 0.52 0.044 1.020 0.152 1.496-5.454-0.266-10.28-2.88-13.522-6.862-0.566 0.982-0.898 2.106-0.898 3.316 0 2.272 1.17 4.286 2.914 5.452-1.054-0.020-2.088-0.326-2.964-0.808 0 0.020 0 0.046 0 0.072 0 3.188 2.274 5.836 5.256 6.446-0.534 0.146-1.116 0.216-1.72 0.216-0.42 0-0.844-0.024-1.242-0.112 0.85 2.598 3.262 4.508 6.13 4.57-2.232 1.746-5.066 2.798-8.134 2.798-0.538 0-1.054-0.024-1.57-0.090 2.906 1.874 6.35 2.944 10.064 2.944 12.072 0 18.672-10 18.672-18.668 0-0.29-0.010-0.57-0.024-0.848 1.302-0.924 2.396-2.078 3.288-3.406z"></path>
        </symbol>

        <symbol id="icon-user" viewBox="0 0 32 32">
            <path d="M16 16c2.947 0 5.333-2.387 5.333-5.333s-2.387-5.333-5.333-5.333c-2.947 0-5.333 2.387-5.333 5.333s2.387 5.333 5.333 5.333zM16 18.667c-3.56 0-10.667 1.787-10.667 5.333v1.333c0 0.733 0.6 1.333 1.333 1.333h18.667c0.733 0 1.333-0.6 1.333-1.333v-1.333c0-3.547-7.107-5.333-10.667-5.333z"></path>
        </symbol>

        <symbol id="icon-checked" viewBox="0 0 42 32">
            <path fill="#fff" style="fill: var(--color1, #fff); stroke: var(--color1, #fff)" stroke="#fff" stroke-linejoin="miter" stroke-linecap="butt" stroke-miterlimit="4" stroke-width="0.64" d="M6.263 15.205l-0.22-0.21-3.307 3.132 11.651 11.114 24.477-23.351-3.285-3.134-21.192 20.197-8.124-7.75z"></path>
        </symbol>

        <symbol id="icon-mail" viewBox="0 0 24 24">
            <path fill-rule="evenodd" clip-rule="evenodd" d="M4.8 5H19.2C20.19 5 21 5.7875 21 6.75V17.25C21 18.2125 20.19 19 19.2 19H4.8C3.81 19 3 18.2125 3 17.25V6.75C3 5.7875 3.81 5 4.8 5Z" stroke="#9DA4BD" stroke-linecap="round" stroke-linejoin="round"/>
            <path d="M20 7L12 13L4 7" stroke="#9DA4BD" stroke-linecap="round" stroke-linejoin="round"/>
        </symbol>

        <symbol id="icon-map" viewBox="0 0 24 24">
            <path fill-rule="evenodd" clip-rule="evenodd" d="M20 10.3636C20 16.0909 12 21 12 21C12 21 4 16.0909 4 10.3636C4 6.29681 7.58172 3 12 3C16.4183 3 20 6.29681 20 10.3636V10.3636Z" stroke="#9DA4BD" stroke-linecap="round" stroke-linejoin="round"/>
            <path fill-rule="evenodd" clip-rule="evenodd" d="M12 14C13.6569 14 15 12.6569 15 11C15 9.34315 13.6569 8 12 8C10.3431 8 9 9.34315 9 11C9 12.6569 10.3431 14 12 14Z" stroke="#9DA4BD" stroke-linecap="round" stroke-linejoin="round"/>
        </symbol>

        <symbol id="icon-phone" viewBox="0 0 24 24">
            <path fill-rule="evenodd" clip-rule="evenodd" d="M19.9995 16.0028V18.4163C20.0013 18.8693 19.8121 19.3021 19.4783 19.6084C19.1444 19.9147 18.6969 20.066 18.2457 20.0252C15.7702 19.7562 13.3923 18.9103 11.3031 17.5555C9.35937 16.3203 7.71141 14.6724 6.47627 12.7286C5.11669 10.6299 4.2706 8.24046 4.00654 5.75383C3.96589 5.30403 4.11616 4.85785 4.42065 4.52429C4.72514 4.19073 5.1558 4.0005 5.60744 4.00008H8.02087C8.82845 3.99213 9.51679 4.5841 9.62982 5.38378C9.73168 6.15613 9.92059 6.91447 10.1929 7.64435C10.414 8.23232 10.2726 8.89515 9.83093 9.34179L8.80925 10.3635C9.95447 12.3775 11.6221 14.0451 13.6361 15.1903L14.6578 14.1686C15.1044 13.727 15.7673 13.5856 16.3552 13.8066C17.0851 14.079 17.8435 14.2679 18.6158 14.3698C19.4248 14.4839 20.0198 15.1861 19.9995 16.0028Z" stroke-linecap="round" stroke-linejoin="round"/>
        </symbol>
    </defs>
</svg>
